<svg xmlns="http://www.w3.org/2000/svg" version="1.1" xmlns:xlink="http://www.w3.org/1999/xlink" xmlns:svgjs="http://svgjs.com/svgjs" width="1440" height="560" preserveAspectRatio="none" viewBox="0 0 1440 560"><g mask="url(&quot;#SvgjsMask1147&quot;)" fill="none"><rect width="1440" height="560" x="0" y="0" fill="rgba(222, 98, 32, 1)"></rect><use xlink:href="#SvgjsG1152" transform="translate(0, 0)" fill="rgba(208, 196, 157, 1)"></use><use xlink:href="#SvgjsG1152" transform="translate(800, 0)" fill="rgba(208, 196, 157, 1)"></use></g><defs><mask id="SvgjsMask1147"><rect width="1440" height="560" fill="#ffffff"></rect></mask><g id="SvgjsG1150"><path d="M3.474 10.969C3.474 7.665 8.077 0.361 8.077 0.361s4.602 7.305 4.602 10.608c0 2.247-1.506 4.771-4.602 4.771-3.095 0-4.603-2.524-4.603-4.771z" fill-rule="evenodd"></path></g><g id="SvgjsG1149"><path d="M2.524 8.637H0.014V7.308h2.51v1.329zM3.656 4.576L1.884 2.804l0.935-0.935 1.772 1.772-0.935 0.935z m0 6.817l0.935 0.935-1.772 1.773-0.934-0.936 1.771-1.772z m4.997-8.884h-1.33V-0.002h1.33v2.511z m-1.33 10.952h1.33v2.51h-1.33v-2.509zM12.344 4.576l-0.96-0.935 1.796-1.772 0.935 0.935-1.772 1.772z m0 6.792l1.771 1.797-0.935 0.936-1.771-1.774 0.936-0.96z m3.643-4.06v1.329h-2.51V7.308h2.509z"></path><path d="M3.702 7.984a4.184 4.184 0 1 0 8.368 0 4.184 4.184 0 1 0-8.368 0"></path></g><g id="SvgjsG1151"><path d="M15.065 12.151H0.02c0 1.333 1.015 1.95 1.83 1.95h11.386c0.975 0 1.83-0.767 1.829-1.951zM12.853 2.166H1.869v7.208c0 0.976 0.843 1.75 1.755 1.75h7.121c1.031 0 1.731-0.863 1.731-1.749V8.773c2.031 0 3.505-1.527 3.505-3.303 0-1.815-1.445-3.303-3.126-3.303z m1.832 3.305c0 1.036-0.763 2.025-2.21 1.931V3.519l0.378 0 0 0.001c1.391 0 1.837 1.318 1.832 1.952v-0.001z"></path></g><g id="SvgjsG1148"><path d="M12.049 4.244l-1.49 11.735H5.527L4.041 4.244h6.146L11.403 0 12.091 0.193l-1.164 4.048 1.122 0.003z" fill-rule="evenodd"></path></g><g id="SvgjsG1152"><use xlink:href="#SvgjsG1148" transform="translate(0, 0) scale(2)" fill="rgba(208, 196, 157, 1)"></use><use xlink:href="#SvgjsG1149" transform="translate(0, 80) scale(2)" fill="rgba(208, 196, 157, 1)"></use><use xlink:href="#SvgjsG1149" transform="translate(0, 160) scale(2)" fill="rgba(208, 196, 157, 1)"></use><use xlink:href="#SvgjsG1150" transform="translate(0, 240) scale(2)" fill="rgba(208, 196, 157, 1)"></use><use xlink:href="#SvgjsG1151" transform="translate(0, 320) scale(2)" fill="rgba(208, 196, 157, 1)"></use><use xlink:href="#SvgjsG1150" transform="translate(0, 400) scale(2)" fill="rgba(208, 196, 157, 1)"></use><use xlink:href="#SvgjsG1151" transform="translate(0, 480) scale(2)" fill="rgba(208, 196, 157, 1)"></use><use xlink:href="#SvgjsG1150" transform="translate(80, 0) scale(2)" fill="rgba(208, 196, 157, 1)"></use><use xlink:href="#SvgjsG1148" transform="translate(80, 80) scale(2)" fill="rgba(208, 196, 157, 1)"></use><use xlink:href="#SvgjsG1151" transform="translate(80, 160) scale(2)" fill="rgba(208, 196, 157, 1)"></use><use xlink:href="#SvgjsG1149" transform="translate(80, 240) scale(2)" fill="rgba(208, 196, 157, 1)"></use><use xlink:href="#SvgjsG1150" transform="translate(80, 320) scale(2)" fill="rgba(208, 196, 157, 1)"></use><use xlink:href="#SvgjsG1150" transform="translate(80, 400) scale(2)" fill="rgba(208, 196, 157, 1)"></use><use xlink:href="#SvgjsG1149" transform="translate(80, 480) scale(2)" fill="rgba(208, 196, 157, 1)"></use><use xlink:href="#SvgjsG1149" transform="translate(160, 0) scale(2)" fill="rgba(208, 196, 157, 1)"></use><use xlink:href="#SvgjsG1151" transform="translate(160, 80) scale(2)" fill="rgba(208, 196, 157, 1)"></use><use xlink:href="#SvgjsG1151" transform="translate(160, 160) scale(2)" fill="rgba(208, 196, 157, 1)"></use><use xlink:href="#SvgjsG1151" transform="translate(160, 240) scale(2)" fill="rgba(208, 196, 157, 1)"></use><use xlink:href="#SvgjsG1148" transform="translate(160, 320) scale(2)" fill="rgba(208, 196, 157, 1)"></use><use xlink:href="#SvgjsG1149" transform="translate(160, 400) scale(2)" fill="rgba(208, 196, 157, 1)"></use><use xlink:href="#SvgjsG1151" transform="translate(160, 480) scale(2)" fill="rgba(208, 196, 157, 1)"></use><use xlink:href="#SvgjsG1150" transform="translate(240, 0) scale(2)" fill="rgba(208, 196, 157, 1)"></use><use xlink:href="#SvgjsG1149" transform="translate(240, 80) scale(2)" fill="rgba(208, 196, 157, 1)"></use><use xlink:href="#SvgjsG1149" transform="translate(240, 160) scale(2)" fill="rgba(208, 196, 157, 1)"></use><use xlink:href="#SvgjsG1148" transform="translate(240, 240) scale(2)" fill="rgba(208, 196, 157, 1)"></use><use xlink:href="#SvgjsG1148" transform="translate(240, 320) scale(2)" fill="rgba(208, 196, 157, 1)"></use><use xlink:href="#SvgjsG1148" transform="translate(240, 400) scale(2)" fill="rgba(208, 196, 157, 1)"></use><use xlink:href="#SvgjsG1148" transform="translate(240, 480) scale(2)" fill="rgba(208, 196, 157, 1)"></use><use xlink:href="#SvgjsG1149" transform="translate(320, 0) scale(2)" fill="rgba(208, 196, 157, 1)"></use><use xlink:href="#SvgjsG1150" transform="translate(320, 80) scale(2)" fill="rgba(208, 196, 157, 1)"></use><use xlink:href="#SvgjsG1150" transform="translate(320, 160) scale(2)" fill="rgba(208, 196, 157, 1)"></use><use xlink:href="#SvgjsG1150" transform="translate(320, 240) scale(2)" fill="rgba(208, 196, 157, 1)"></use><use xlink:href="#SvgjsG1149" transform="translate(320, 320) scale(2)" fill="rgba(208, 196, 157, 1)"></use><use xlink:href="#SvgjsG1149" transform="translate(320, 400) scale(2)" fill="rgba(208, 196, 157, 1)"></use><use xlink:href="#SvgjsG1149" transform="translate(320, 480) scale(2)" fill="rgba(208, 196, 157, 1)"></use><use xlink:href="#SvgjsG1148" transform="translate(400, 0) scale(2)" fill="rgba(208, 196, 157, 1)"></use><use xlink:href="#SvgjsG1150" transform="translate(400, 80) scale(2)" fill="rgba(208, 196, 157, 1)"></use><use xlink:href="#SvgjsG1148" transform="translate(400, 160) scale(2)" fill="rgba(208, 196, 157, 1)"></use><use xlink:href="#SvgjsG1148" transform="translate(400, 240) scale(2)" fill="rgba(208, 196, 157, 1)"></use><use xlink:href="#SvgjsG1148" transform="translate(400, 320) scale(2)" fill="rgba(208, 196, 157, 1)"></use><use xlink:href="#SvgjsG1149" transform="translate(400, 400) scale(2)" fill="rgba(208, 196, 157, 1)"></use><use xlink:href="#SvgjsG1150" transform="translate(400, 480) scale(2)" fill="rgba(208, 196, 157, 1)"></use><use xlink:href="#SvgjsG1148" transform="translate(480, 0) scale(2)" fill="rgba(208, 196, 157, 1)"></use><use xlink:href="#SvgjsG1149" transform="translate(480, 80) scale(2)" fill="rgba(208, 196, 157, 1)"></use><use xlink:href="#SvgjsG1151" transform="translate(480, 160) scale(2)" fill="rgba(208, 196, 157, 1)"></use><use xlink:href="#SvgjsG1150" transform="translate(480, 240) scale(2)" fill="rgba(208, 196, 157, 1)"></use><use xlink:href="#SvgjsG1151" transform="translate(480, 320) scale(2)" fill="rgba(208, 196, 157, 1)"></use><use xlink:href="#SvgjsG1148" transform="translate(480, 400) scale(2)" fill="rgba(208, 196, 157, 1)"></use><use xlink:href="#SvgjsG1149" transform="translate(480, 480) scale(2)" fill="rgba(208, 196, 157, 1)"></use><use xlink:href="#SvgjsG1151" transform="translate(560, 0) scale(2)" fill="rgba(208, 196, 157, 1)"></use><use xlink:href="#SvgjsG1149" transform="translate(560, 80) scale(2)" fill="rgba(208, 196, 157, 1)"></use><use xlink:href="#SvgjsG1150" transform="translate(560, 160) scale(2)" fill="rgba(208, 196, 157, 1)"></use><use xlink:href="#SvgjsG1150" transform="translate(560, 240) scale(2)" fill="rgba(208, 196, 157, 1)"></use><use xlink:href="#SvgjsG1149" transform="translate(560, 320) scale(2)" fill="rgba(208, 196, 157, 1)"></use><use xlink:href="#SvgjsG1149" transform="translate(560, 400) scale(2)" fill="rgba(208, 196, 157, 1)"></use><use xlink:href="#SvgjsG1150" transform="translate(560, 480) scale(2)" fill="rgba(208, 196, 157, 1)"></use><use xlink:href="#SvgjsG1148" transform="translate(640, 0) scale(2)" fill="rgba(208, 196, 157, 1)"></use><use xlink:href="#SvgjsG1151" transform="translate(640, 80) scale(2)" fill="rgba(208, 196, 157, 1)"></use><use xlink:href="#SvgjsG1149" transform="translate(640, 160) scale(2)" fill="rgba(208, 196, 157, 1)"></use><use xlink:href="#SvgjsG1150" transform="translate(640, 240) scale(2)" fill="rgba(208, 196, 157, 1)"></use><use xlink:href="#SvgjsG1150" transform="translate(640, 320) scale(2)" fill="rgba(208, 196, 157, 1)"></use><use xlink:href="#SvgjsG1150" transform="translate(640, 400) scale(2)" fill="rgba(208, 196, 157, 1)"></use><use xlink:href="#SvgjsG1150" transform="translate(640, 480) scale(2)" fill="rgba(208, 196, 157, 1)"></use><use xlink:href="#SvgjsG1150" transform="translate(720, 0) scale(2)" fill="rgba(208, 196, 157, 1)"></use><use xlink:href="#SvgjsG1149" transform="translate(720, 80) scale(2)" fill="rgba(208, 196, 157, 1)"></use><use xlink:href="#SvgjsG1149" transform="translate(720, 160) scale(2)" fill="rgba(208, 196, 157, 1)"></use><use xlink:href="#SvgjsG1149" transform="translate(720, 240) scale(2)" fill="rgba(208, 196, 157, 1)"></use><use xlink:href="#SvgjsG1148" transform="translate(720, 320) scale(2)" fill="rgba(208, 196, 157, 1)"></use><use xlink:href="#SvgjsG1151" transform="translate(720, 400) scale(2)" fill="rgba(208, 196, 157, 1)"></use><use xlink:href="#SvgjsG1150" transform="translate(720, 480) scale(2)" fill="rgba(208, 196, 157, 1)"></use></g></defs></svg>