<svg xmlns="http://www.w3.org/2000/svg" version="1.1" xmlns:xlink="http://www.w3.org/1999/xlink" xmlns:svgjs="http://svgjs.com/svgjs" width="1440" height="560" preserveAspectRatio="none" viewBox="0 0 1440 560"><g mask="url(&quot;#SvgjsMask1001&quot;)" fill="none"><rect width="1440" height="560" x="0" y="0" fill="rgba(27, 12, 4, 1)"></rect><path d="M0,425.754C93.202,443.278,189.958,467.185,278.632,433.561C375.965,396.654,484.794,333.771,509.356,232.615C534.286,129.945,421.668,45.726,397.794,-57.194C376.882,-147.343,436.196,-255.668,379.18,-328.561C322.304,-401.274,212.562,-401.422,120.782,-411.344C41.383,-419.928,-32.818,-391.537,-112.068,-381.669C-209.965,-369.479,-324.194,-409.771,-399.894,-346.51C-475.502,-283.326,-480.594,-168.195,-485.291,-69.774C-489.683,22.262,-475.969,117.189,-425.709,194.415C-378.712,266.628,-294.258,298.939,-218.555,340.078C-148.38,378.212,-78.492,410.996,0,425.754" fill="#160a03"></path><path d="M1440 1262.911C1573.93 1250.496 1610.277 1065.282 1700.778 965.779 1763.99 896.279 1830.5810000000001 837.633 1891.6979999999999 766.284 1978.0700000000002 665.453 2132.872 593.008 2133.818 460.244 2134.737 331.231 2004.3809999999999 234.85199999999998 1895.983 164.88799999999998 1802.4 104.48599999999999 1679.713 138.089 1575.165 99.67099999999999 1459.288 57.089999999999975 1377.357-85.59500000000003 1254.8029999999999-70.72400000000005 1133.95-56.05899999999997 1075.416 83.26100000000002 990.611 170.60199999999998 900.007 263.915 761.197 331.029 740.101 459.37 718.988 587.813 808.328 708.254 884.937 813.489 951.271 904.6089999999999 1058.588 946.265 1146.183 1017.1890000000001 1247.461 1099.192 1310.242 1274.9389999999999 1440 1262.911" fill="#200e05"></path></g><defs><mask id="SvgjsMask1001"><rect width="1440" height="560" fill="#ffffff"></rect></mask></defs></svg>